<svg version="1.1" xmlns="http://www.w3.org/2000/svg" xmlns:xlink="http://www.w3.org/1999/xlink" x="0" y="0" width="14" height="14" viewBox="0, 0, 14, 14">
<path d="M11.288,2.53 C10.088,3.216 10.317,4.53 9.573,5.389 C7.972,7.389 4.942,8.418 1.855,8.704 C1.226,8.761 0.426,9.219 0.14,9.848 C0.711,9.677 1.627,9.79 2.083,10.076 C2.083,10.419 0.939,10.762 1.455,11.39 C1.855,11.619 2.426,11.619 2.999,11.448 C3.513,11.105 3.57,10.877 3.8,10.419 C6.258,10.934 7.973,10.361 7.973,10.361 C7.973,10.361 8.144,11.047 8.659,11.39 C9.23,11.676 9.974,11.619 10.487,11.39 C11.003,10.875 9.859,10.59 9.859,9.561 C9.859,8.016 10.317,6.931 11.574,5.788 C11.974,6.474 13.118,6.359 13.574,5.73 C13.745,5.445 13.86,5.159 13.86,4.816 C13.86,2.758 12.03,2.129 11.288,2.53 z M12.716,4.53 C12.488,4.53 12.316,4.358 12.316,4.13 C12.316,3.902 12.487,3.73 12.716,3.73 C12.944,3.73 13.117,3.902 13.117,4.13 C13.117,4.36 12.946,4.53 12.716,4.53 z" fill="#f9be03"/>
<path d="M7.972,4.473 C7.514,3.615 6.257,2.472 3.57,3.216 C0.598,4.13 0.654,6.531 1.112,7.104 C1.112,7.104 0.426,7.389 0.826,7.962 C1.169,8.362 2.999,8.077 4.599,7.561 C6.199,7.104 7.571,6.36 8.315,5.789 C9.001,5.274 8.715,4.36 7.972,4.473 z" fill="#f9be03"/>
</svg>
